<svg xmlns="http://www.w3.org/2000/svg" xmlns:xlink="http://www.w3.org/1999/xlink" contentStyleType="text/css" data-diagram-type="CLASS" height="166px" preserveAspectRatio="none" style="width:181px;height:166px;background:#FFFFFF;" version="1.1" viewBox="0 0 181 166" width="181px" zoomAndPan="magnify"><defs/><g><!--class base--><g id="elem_base"><rect codeLine="1" fill="#F1F1F1" height="145.7813" id="base" rx="2.5" ry="2.5" style="stroke:#181818;stroke-width:0.5;" width="160.5244" x="7" y="7"/><ellipse cx="66.3257" cy="23" fill="#B4A7E5" rx="11" ry="11" style="stroke:#181818;stroke-width:1;"/><path d="M62.2476,18.7656 L62.2476,16.6094 L69.6382,16.6094 L69.6382,18.7656 L67.1694,18.7656 L67.1694,26.8438 L69.6382,26.8438 L69.6382,29 L62.2476,29 L62.2476,26.8438 L64.7163,26.8438 L64.7163,18.7656 L62.2476,18.7656 Z " fill="#000000"/><text fill="#000000" font-family="sans-serif" font-size="14" font-style="italic" lengthAdjust="spacing" textLength="33.373" x="86.8257" y="27.8467">base</text><line style="stroke:#181818;stroke-width:0.5;" x1="8" x2="166.5244" y1="39" y2="39"/><line style="stroke:#181818;stroke-width:1;" x1="8" x2="166.5244" y1="47" y2="47"/><ellipse cx="18" cy="60.6484" fill="#FFFFFF" fill-opacity="0.00000" rx="3" ry="3" style="stroke:#038048;stroke-width:1;"/><text fill="#000000" font-family="sans-serif" font-size="14" lengthAdjust="spacing" textLength="113.2646" x="27" y="63.9951">bomb?: Boolean</text><ellipse cx="18" cy="76.9453" fill="#FFFFFF" fill-opacity="0.00000" rx="3" ry="3" style="stroke:#038048;stroke-width:1;"/><text fill="#000000" font-family="sans-serif" font-size="14" lengthAdjust="spacing" textLength="118.2002" x="27" y="80.292">empty?: Boolean</text><ellipse cx="18" cy="93.2422" fill="#FFFFFF" fill-opacity="0.00000" rx="3" ry="3" style="stroke:#038048;stroke-width:1;"/><text fill="#000000" font-family="sans-serif" font-size="14" lengthAdjust="spacing" textLength="99.5723" x="27" y="96.5889">flag?: Boolean</text><ellipse cx="18" cy="109.5391" fill="#FFFFFF" fill-opacity="0.00000" rx="3" ry="3" style="stroke:#038048;stroke-width:1;"/><text fill="#000000" font-family="sans-serif" font-size="14" lengthAdjust="spacing" textLength="134.5244" x="27" y="112.8857">revealed?: Boolean</text><ellipse cx="18" cy="125.8359" fill="#FFFFFF" fill-opacity="0.00000" rx="3" ry="3" style="stroke:#038048;stroke-width:1;"/><text fill="#000000" font-family="sans-serif" font-size="14" lengthAdjust="spacing" textLength="116.4092" x="27" y="129.1826">toggle_flag: void</text><ellipse cx="18" cy="142.1328" fill="#FFFFFF" fill-opacity="0.00000" rx="3" ry="3" style="stroke:#038048;stroke-width:1;"/><text fill="#000000" font-family="sans-serif" font-size="14" lengthAdjust="spacing" textLength="82.5303" x="27" y="145.4795">reveal: void</text></g><!--SRC=[oymhIIrAIqnELKXAB4vLgEPI009TNJ2bhP2KdvjaRwNWb9-VavgO1nLCpIqegSGGJSj9JCSGB4ejIqtCIKt1a2Z9Jq_FIOq7QR9IAClFJ47H01Mg1G00]--></g></svg>