<svg xmlns="http://www.w3.org/2000/svg" xmlns:xlink="http://www.w3.org/1999/xlink" contentStyleType="text/css" data-diagram-type="CLASS" height="134px" preserveAspectRatio="none" style="width:242px;height:134px;background:#FFFFFF;" version="1.1" viewBox="0 0 242 134" width="242px" zoomAndPan="magnify"><defs/><g><!--class neighbor--><g id="elem_neighbor"><rect codeLine="1" fill="#F1F1F1" height="113.1875" id="neighbor" rx="2.5" ry="2.5" style="stroke:#181818;stroke-width:0.5;" width="221.8701" x="7" y="7"/><ellipse cx="82.5132" cy="23" fill="#B4A7E5" rx="11" ry="11" style="stroke:#181818;stroke-width:1;"/><path d="M78.4351,18.7656 L78.4351,16.6094 L85.8257,16.6094 L85.8257,18.7656 L83.3569,18.7656 L83.3569,26.8438 L85.8257,26.8438 L85.8257,29 L78.4351,29 L78.4351,26.8438 L80.9038,26.8438 L80.9038,18.7656 L78.4351,18.7656 Z " fill="#000000"/><text fill="#000000" font-family="sans-serif" font-size="14" font-style="italic" lengthAdjust="spacing" textLength="62.3438" x="103.0132" y="27.8467">neighbor</text><line style="stroke:#181818;stroke-width:0.5;" x1="8" x2="227.8701" y1="39" y2="39"/><line style="stroke:#181818;stroke-width:1;" x1="8" x2="227.8701" y1="47" y2="47"/><ellipse cx="18" cy="60.6484" fill="#FFFFFF" fill-opacity="0.00000" rx="3" ry="3" style="stroke:#038048;stroke-width:1;"/><text fill="#000000" font-family="sans-serif" font-size="14" lengthAdjust="spacing" textLength="113.2646" x="27" y="63.9951">bomb?: Boolean</text><ellipse cx="18" cy="76.9453" fill="#FFFFFF" fill-opacity="0.00000" rx="3" ry="3" style="stroke:#038048;stroke-width:1;"/><text fill="#000000" font-family="sans-serif" font-size="14" lengthAdjust="spacing" textLength="118.2002" x="27" y="80.292">empty?: Boolean</text><ellipse cx="18" cy="93.2422" fill="#FFFFFF" fill-opacity="0.00000" rx="3" ry="3" style="stroke:#038048;stroke-width:1;"/><text fill="#000000" font-family="sans-serif" font-size="14" lengthAdjust="spacing" textLength="134.5244" x="27" y="96.5889">revealed?: Boolean</text><ellipse cx="18" cy="109.5391" fill="#FFFFFF" fill-opacity="0.00000" rx="3" ry="3" style="stroke:#038048;stroke-width:1;"/><text fill="#000000" font-family="sans-serif" font-size="14" lengthAdjust="spacing" textLength="195.8701" x="27" y="112.8857">reveal_with_neighbors: void</text></g><!--SRC=[oymhIIrAIqnELSXBpKpFICelKgZcKW02NLqmfQsGb9-RP6-bu9IVdvEQc0SLJCqjAAd442rABKjDp4bDmI4HNvvPaX4FiwVOIg4iFpE5gnO0]--></g></svg>