<svg xmlns="http://www.w3.org/2000/svg" xmlns:xlink="http://www.w3.org/1999/xlink" contentStyleType="text/css" data-diagram-type="CLASS" height="150px" preserveAspectRatio="none" style="width:231px;height:150px;background:#FFFFFF;" version="1.1" viewBox="0 0 231 150" width="231px" zoomAndPan="magnify"><defs/><g><!--class Position--><g id="elem_Position"><rect codeLine="1" fill="#F1F1F1" height="129.4844" id="Position" rx="2.5" ry="2.5" style="stroke:#181818;stroke-width:0.5;" width="210.3857" x="7" y="7"/><ellipse cx="80.4385" cy="23" fill="#ADD1B2" rx="11" ry="11" style="stroke:#181818;stroke-width:1;"/><path d="M83.4072,28.6406 Q82.8291,28.9375 82.1885,29.0781 Q81.5479,29.2344 80.8447,29.2344 Q78.3447,29.2344 77.0166,27.5938 Q75.7041,25.9375 75.7041,22.8125 Q75.7041,19.6875 77.0166,18.0313 Q78.3447,16.375 80.8447,16.375 Q81.5479,16.375 82.1885,16.5313 Q82.8447,16.6875 83.4072,16.9844 L83.4072,19.7031 Q82.7822,19.125 82.1885,18.8594 Q81.5947,18.5781 80.9697,18.5781 Q79.626,18.5781 78.9385,19.6563 Q78.251,20.7188 78.251,22.8125 Q78.251,24.9063 78.9385,25.9844 Q79.626,27.0469 80.9697,27.0469 Q81.5947,27.0469 82.1885,26.7813 Q82.7822,26.5 83.4072,25.9219 L83.4072,28.6406 Z " fill="#000000"/><text fill="#000000" font-family="sans-serif" font-size="14" lengthAdjust="spacing" textLength="55.0088" x="100.9385" y="27.8467">Position</text><line style="stroke:#181818;stroke-width:0.5;" x1="8" x2="216.3857" y1="39" y2="39"/><rect fill="#FFFFFF" fill-opacity="0.00000" height="6" style="stroke:#C82930;stroke-width:1;" width="6" x="15" y="49.6484"/><text fill="#000000" font-family="sans-serif" font-size="14" lengthAdjust="spacing" textLength="67.8125" x="27" y="55.9951">x: Integer</text><rect fill="#FFFFFF" fill-opacity="0.00000" height="6" style="stroke:#C82930;stroke-width:1;" width="6" x="15" y="65.9453"/><text fill="#000000" font-family="sans-serif" font-size="14" lengthAdjust="spacing" textLength="67.8125" x="27" y="72.292">y: Integer</text><line style="stroke:#181818;stroke-width:1;" x1="8" x2="216.3857" y1="79.5938" y2="79.5938"/><ellipse cx="18" cy="93.2422" fill="#84BE84" rx="3" ry="3" style="stroke:#038048;stroke-width:1;"/><text fill="#000000" font-family="sans-serif" font-size="14" lengthAdjust="spacing" textLength="184.3857" x="27" y="96.5889">new(x: Integer, y: Integer)</text><ellipse cx="18" cy="109.5391" fill="#FFFFFF" fill-opacity="0.00000" rx="3" ry="3" style="stroke:#038048;stroke-width:1;"/><text fill="#000000" font-family="sans-serif" font-size="14" lengthAdjust="spacing" textLength="67.8125" x="27" y="112.8857">x: Integer</text><ellipse cx="18" cy="125.8359" fill="#FFFFFF" fill-opacity="0.00000" rx="3" ry="3" style="stroke:#038048;stroke-width:1;"/><text fill="#000000" font-family="sans-serif" font-size="14" lengthAdjust="spacing" textLength="67.8125" x="27" y="129.1826">y: Integer</text></g><!--SRC=[Iyv9B2vM2CWlpYp9pCzJgEPI009TXGeh1S-yajJqr2AeG2MQW2wOqbR8IotNG2ZMGLAd2LM1PfGsib6r0000]--></g></svg>