<svg xmlns="http://www.w3.org/2000/svg" xmlns:xlink="http://www.w3.org/1999/xlink" contentStyleType="text/css" data-diagram-type="CLASS" height="231px" preserveAspectRatio="none" style="width:192px;height:231px;background:#FFFFFF;" version="1.1" viewBox="0 0 192 231" width="192px" zoomAndPan="magnify"><defs/><g><!--class Cell--><g id="elem_Cell"><rect codeLine="1" fill="#F1F1F1" height="210.9688" id="Cell" rx="2.5" ry="2.5" style="stroke:#181818;stroke-width:0.5;" width="171.6943" x="7" y="7"/><ellipse cx="75.5132" cy="23" fill="#ADD1B2" rx="11" ry="11" style="stroke:#181818;stroke-width:1;"/><path d="M78.4819,28.6406 Q77.9038,28.9375 77.2632,29.0781 Q76.6226,29.2344 75.9194,29.2344 Q73.4194,29.2344 72.0913,27.5938 Q70.7788,25.9375 70.7788,22.8125 Q70.7788,19.6875 72.0913,18.0313 Q73.4194,16.375 75.9194,16.375 Q76.6226,16.375 77.2632,16.5313 Q77.9194,16.6875 78.4819,16.9844 L78.4819,19.7031 Q77.8569,19.125 77.2632,18.8594 Q76.6694,18.5781 76.0444,18.5781 Q74.7007,18.5781 74.0132,19.6563 Q73.3257,20.7188 73.3257,22.8125 Q73.3257,24.9063 74.0132,25.9844 Q74.7007,27.0469 76.0444,27.0469 Q76.6694,27.0469 77.2632,26.7813 Q77.8569,26.5 78.4819,25.9219 L78.4819,28.6406 Z " fill="#000000"/><text fill="#000000" font-family="sans-serif" font-size="14" lengthAdjust="spacing" textLength="26.168" x="96.0132" y="27.8467">Cell</text><line style="stroke:#181818;stroke-width:0.5;" x1="8" x2="177.6943" y1="39" y2="39"/><rect fill="#FFFFFF" fill-opacity="0.00000" height="6" style="stroke:#C82930;stroke-width:1;" width="6" x="15" y="49.6484"/><text fill="#000000" font-family="sans-serif" font-size="14" lengthAdjust="spacing" textLength="105.834" x="27" y="55.9951">bomb: Boolean</text><rect fill="#FFFFFF" fill-opacity="0.00000" height="6" style="stroke:#C82930;stroke-width:1;" width="6" x="15" y="65.9453"/><text fill="#000000" font-family="sans-serif" font-size="14" lengthAdjust="spacing" textLength="92.1416" x="27" y="72.292">flag: Boolean</text><rect fill="#FFFFFF" fill-opacity="0.00000" height="6" style="stroke:#C82930;stroke-width:1;" width="6" x="15" y="82.2422"/><text fill="#000000" font-family="sans-serif" font-size="14" lengthAdjust="spacing" textLength="127.0938" x="27" y="88.5889">revealed: Boolean</text><line style="stroke:#181818;stroke-width:1;" x1="8" x2="177.6943" y1="95.8906" y2="95.8906"/><ellipse cx="18" cy="109.5391" fill="#84BE84" rx="3" ry="3" style="stroke:#038048;stroke-width:1;"/><text fill="#000000" font-family="sans-serif" font-size="14" lengthAdjust="spacing" textLength="145.6943" x="27" y="112.8857">new(bomb: Boolean)</text><ellipse cx="18" cy="125.8359" fill="#FFFFFF" fill-opacity="0.00000" rx="3" ry="3" style="stroke:#038048;stroke-width:1;"/><text fill="#000000" font-family="sans-serif" font-size="14" lengthAdjust="spacing" textLength="113.2646" x="27" y="129.1826">bomb?: Boolean</text><ellipse cx="18" cy="142.1328" fill="#FFFFFF" fill-opacity="0.00000" rx="3" ry="3" style="stroke:#038048;stroke-width:1;"/><text fill="#000000" font-family="sans-serif" font-size="14" lengthAdjust="spacing" textLength="118.2002" x="27" y="145.4795">empty?: Boolean</text><ellipse cx="18" cy="158.4297" fill="#FFFFFF" fill-opacity="0.00000" rx="3" ry="3" style="stroke:#038048;stroke-width:1;"/><text fill="#000000" font-family="sans-serif" font-size="14" lengthAdjust="spacing" textLength="99.5723" x="27" y="161.7764">flag?: Boolean</text><ellipse cx="18" cy="174.7266" fill="#FFFFFF" fill-opacity="0.00000" rx="3" ry="3" style="stroke:#038048;stroke-width:1;"/><text fill="#000000" font-family="sans-serif" font-size="14" lengthAdjust="spacing" textLength="134.5244" x="27" y="178.0732">revealed?: Boolean</text><ellipse cx="18" cy="191.0234" fill="#FFFFFF" fill-opacity="0.00000" rx="3" ry="3" style="stroke:#038048;stroke-width:1;"/><text fill="#000000" font-family="sans-serif" font-size="14" lengthAdjust="spacing" textLength="116.4092" x="27" y="194.3701">toggle_flag: void</text><ellipse cx="18" cy="207.3203" fill="#FFFFFF" fill-opacity="0.00000" rx="3" ry="3" style="stroke:#038048;stroke-width:1;"/><text fill="#000000" font-family="sans-serif" font-size="14" lengthAdjust="spacing" textLength="82.5303" x="27" y="210.667">reveal: void</text></g><!--SRC=[Iyv9B2vMS4xDoL6evb800bs5fFpS92i5f_pydDJ4FAXOMavYEhfOKMfPQc9EQWgQk2wOqbR8IotNG35A4oe14hH7rQIja9fRK5A98Ggo5aCGPY-6H4b-UdfEQZp4hMNvcIae6g12jG00]--></g></svg>