<svg xmlns="http://www.w3.org/2000/svg" xmlns:xlink="http://www.w3.org/1999/xlink" contentStyleType="text/css" data-diagram-type="CLASS" height="166px" preserveAspectRatio="none" style="width:373px;height:166px;background:#FFFFFF;" version="1.1" viewBox="0 0 373 166" width="373px" zoomAndPan="magnify"><defs/><g><!--class grid_cells--><g id="elem_grid_cells"><rect codeLine="1" fill="#F1F1F1" height="145.7813" id="grid_cells" rx="2.5" ry="2.5" style="stroke:#181818;stroke-width:0.5;" width="352.8672" x="7" y="7"/><ellipse cx="146.2822" cy="23" fill="#B4A7E5" rx="11" ry="11" style="stroke:#181818;stroke-width:1;"/><path d="M142.2041,18.7656 L142.2041,16.6094 L149.5947,16.6094 L149.5947,18.7656 L147.126,18.7656 L147.126,26.8438 L149.5947,26.8438 L149.5947,29 L142.2041,29 L142.2041,26.8438 L144.6729,26.8438 L144.6729,18.7656 L142.2041,18.7656 Z " fill="#000000"/><text fill="#000000" font-family="sans-serif" font-size="14" font-style="italic" lengthAdjust="spacing" textLength="65.8027" x="166.7822" y="27.8467">grid_cells</text><line style="stroke:#181818;stroke-width:0.5;" x1="8" x2="358.8672" y1="39" y2="39"/><line style="stroke:#181818;stroke-width:1;" x1="8" x2="358.8672" y1="47" y2="47"/><ellipse cx="18" cy="60.6484" fill="#84BE84" rx="3" ry="3" style="stroke:#038048;stroke-width:1;"/><text fill="#000000" font-family="sans-serif" font-size="14" lengthAdjust="spacing" textLength="326.8672" x="27" y="63.9951">reveal_with_neighbors(position: position): void</text><ellipse cx="18" cy="76.9453" fill="#84BE84" rx="3" ry="3" style="stroke:#038048;stroke-width:1;"/><text fill="#000000" font-family="sans-serif" font-size="14" lengthAdjust="spacing" textLength="247.4063" x="27" y="80.292">toggle_flag(position: position): void</text><ellipse cx="18" cy="93.2422" fill="#FFFFFF" fill-opacity="0.00000" rx="3" ry="3" style="stroke:#038048;stroke-width:1;"/><text fill="#000000" font-family="sans-serif" font-size="14" lengthAdjust="spacing" textLength="198.3516" x="27" y="96.5889">count_revealed_cell: Integer</text><ellipse cx="18" cy="109.5391" fill="#FFFFFF" fill-opacity="0.00000" rx="3" ry="3" style="stroke:#038048;stroke-width:1;"/><text fill="#000000" font-family="sans-serif" font-size="14" lengthAdjust="spacing" textLength="130.7646" x="27" y="112.8857">bombed?: Boolean</text><ellipse cx="18" cy="125.8359" fill="#FFFFFF" fill-opacity="0.00000" rx="3" ry="3" style="stroke:#038048;stroke-width:1;"/><text fill="#000000" font-family="sans-serif" font-size="14" lengthAdjust="spacing" textLength="154.335" x="27" y="129.1826">num_empties: Integer</text><ellipse cx="18" cy="142.1328" fill="#FFFFFF" fill-opacity="0.00000" rx="3" ry="3" style="stroke:#038048;stroke-width:1;"/><text fill="#000000" font-family="sans-serif" font-size="14" lengthAdjust="spacing" textLength="88.5049" x="27" y="145.4795">display: void</text></g><!--SRC=[XKun3i8m4DjvnOqWr0zaGMBZ5L7QkEb9broLf4K8yNSg6XOMlDYoRDcSAlBe1b38xEq0aKBF0stekW-TAME54tldEja43bElkHndBLnPaw6lEXbQbNrhLGr1O4TnuMzsq2LLk-zWVs7ejbqBo2tIQ-pXBuQkgWANcfsMQ17doYY_3Szb5lTeGwyt]--></g></svg>