<svg xmlns="http://www.w3.org/2000/svg" xmlns:xlink="http://www.w3.org/1999/xlink" contentStyleType="text/css" data-diagram-type="CLASS" height="101px" preserveAspectRatio="none" style="width:114px;height:101px;background:#FFFFFF;" version="1.1" viewBox="0 0 114 101" width="114px" zoomAndPan="magnify"><defs/><g><!--class position--><g id="elem_position"><rect codeLine="1" fill="#F1F1F1" height="80.5938" id="position" rx="2.5" ry="2.5" style="stroke:#181818;stroke-width:0.5;" width="93.8125" x="7" y="7"/><ellipse cx="24.8617" cy="23" fill="#B4A7E5" rx="11" ry="11" style="stroke:#181818;stroke-width:1;"/><path d="M20.7836,18.7656 L20.7836,16.6094 L28.1742,16.6094 L28.1742,18.7656 L25.7055,18.7656 L25.7055,26.8438 L28.1742,26.8438 L28.1742,29 L20.7836,29 L20.7836,26.8438 L23.2523,26.8438 L23.2523,18.7656 L20.7836,18.7656 Z " fill="#000000"/><text fill="#000000" font-family="sans-serif" font-size="14" font-style="italic" lengthAdjust="spacing" textLength="55.4531" x="39.4977" y="27.8467">position</text><line style="stroke:#181818;stroke-width:0.5;" x1="8" x2="99.8125" y1="39" y2="39"/><line style="stroke:#181818;stroke-width:1;" x1="8" x2="99.8125" y1="47" y2="47"/><ellipse cx="18" cy="60.6484" fill="#FFFFFF" fill-opacity="0.00000" rx="3" ry="3" style="stroke:#038048;stroke-width:1;"/><text fill="#000000" font-family="sans-serif" font-size="14" lengthAdjust="spacing" textLength="67.8125" x="27" y="63.9951">x: Integer</text><ellipse cx="18" cy="76.9453" fill="#FFFFFF" fill-opacity="0.00000" rx="3" ry="3" style="stroke:#038048;stroke-width:1;"/><text fill="#000000" font-family="sans-serif" font-size="14" lengthAdjust="spacing" textLength="67.8125" x="27" y="80.292">y: Integer</text></g><!--SRC=[oymhIIrAIqnELIZ8ByuioSpFKwZcKW02NLqmfQrGOQNW2LIKdbe45QX42DG20000]--></g></svg>